<svg xmlns="http://www.w3.org/2000/svg" width="99" height="24" viewBox="0 0 99 24">    <g fill="#FFF" fill-rule="nonzero">        <path d="M13.15 3.928c.77-.997 1.296-2.354 1.15-3.73-1.115.051-2.508.798-3.31 1.773-.71.86-1.345 2.268-1.18 3.593 1.25.096 2.536-.654 3.34-1.636zM15.968 12.574c-.025-2.94 2.325-4.37 2.432-4.437-1.33-2.01-3.394-2.284-4.119-2.306-1.732-.189-3.413 1.074-4.296 1.074-.9 0-2.26-1.056-3.724-1.025-1.885.03-3.648 1.16-4.616 2.916-1.996 3.578-.507 8.837 1.405 11.73.957 1.416 2.075 2.998 3.538 2.943 1.431-.062 1.966-.945 3.693-.945 1.712 0 2.214.945 3.706.909 1.536-.026 2.503-1.423 3.427-2.852 1.105-1.624 1.549-3.223 1.567-3.305-.037-.013-2.984-1.178-3.013-4.702zM37.098 19.133h-2.032l-1.112-3.495h-3.868l-1.06 3.495h-1.978L30.88 7.234h2.367l3.851 11.899zm-3.48-4.961l-1.006-3.108c-.107-.317-.306-1.064-.6-2.241h-.036a86.471 86.471 0 0 1-.566 2.241l-.988 3.108h3.196zM46.953 14.738c0 1.459-.394 2.612-1.183 3.459-.707.754-1.584 1.13-2.632 1.13-1.13 0-1.943-.406-2.438-1.218h-.035v4.52h-1.908v-9.251c0-.918-.024-1.86-.07-2.825h1.677l.107 1.36h.035c.636-1.025 1.602-1.536 2.897-1.536 1.013 0 1.858.4 2.534 1.2.678.8 1.016 1.854 1.016 3.16zm-1.943.07c0-.836-.187-1.524-.565-2.066-.412-.565-.966-.848-1.66-.848-.47 0-.898.158-1.28.468a2.169 2.169 0 0 0-.75 1.227c-.06.237-.09.43-.09.582v1.43c0 .624.192 1.151.575 1.581.383.43.88.645 1.492.645.718 0 1.277-.277 1.677-.83.401-.554.601-1.283.601-2.19zM56.827 14.738c0 1.459-.395 2.612-1.185 3.459-.705.754-1.583 1.13-2.63 1.13-1.131 0-1.944-.406-2.437-1.218h-.036v4.52h-1.907v-9.251c0-.918-.025-1.86-.071-2.825h1.677l.107 1.36h.035c.636-1.025 1.6-1.536 2.897-1.536 1.012 0 1.857.4 2.535 1.2.676.8 1.015 1.854 1.015 3.16zm-1.943.07c0-.836-.189-1.524-.567-2.066-.412-.565-.964-.848-1.659-.848-.471 0-.898.158-1.281.468a2.168 2.168 0 0 0-.75 1.227c-.058.237-.088.43-.088.582v1.43c0 .624.191 1.151.572 1.581.383.43.88.645 1.494.645.719 0 1.278-.277 1.678-.83.4-.554.6-1.283.6-2.19zM67.866 15.796c0 1.012-.352 1.836-1.058 2.471-.775.695-1.855 1.042-3.243 1.042-1.28 0-2.308-.247-3.085-.741l.442-1.589a5.23 5.23 0 0 0 2.757.76c.718 0 1.278-.163 1.68-.486.399-.324.599-.759.599-1.3 0-.483-.165-.89-.495-1.22-.328-.33-.877-.637-1.643-.92-2.084-.777-3.125-1.915-3.125-3.412 0-.978.365-1.78 1.096-2.404.728-.625 1.7-.937 2.914-.937 1.083 0 1.983.188 2.702.565l-.477 1.554c-.671-.365-1.43-.547-2.279-.547-.67 0-1.195.165-1.57.494a1.412 1.412 0 0 0-.477 1.077c0 .47.181.86.546 1.165.318.283.895.589 1.732.919 1.025.412 1.777.894 2.26 1.446.483.551.724 1.24.724 2.063zM74.171 11.984H72.07v4.165c0 1.06.37 1.59 1.113 1.59.34 0 .624-.03.847-.09l.053 1.448c-.376.14-.87.211-1.483.211-.753 0-1.342-.23-1.767-.688-.423-.46-.636-1.23-.636-2.313v-4.325h-1.252v-1.43h1.252V8.98l1.873-.565v2.136h2.102v1.433zM83.656 14.772c0 1.32-.377 2.402-1.13 3.249-.79.871-1.839 1.306-3.146 1.306-1.26 0-2.262-.418-3.01-1.253-.748-.835-1.122-1.889-1.122-3.16 0-1.329.385-2.418 1.157-3.265.77-.847 1.81-1.271 3.117-1.271 1.26 0 2.273.417 3.038 1.253.731.811 1.096 1.858 1.096 3.141zm-1.978.062c0-.791-.17-1.47-.512-2.036-.4-.685-.972-1.026-1.712-1.026-.767 0-1.35.342-1.75 1.026-.342.567-.51 1.256-.51 2.072 0 .791.168 1.47.51 2.035.413.685.99 1.026 1.733 1.026.728 0 1.3-.348 1.712-1.044.352-.577.529-1.263.529-2.053zM89.856 12.23a3.313 3.313 0 0 0-.601-.053c-.671 0-1.19.253-1.555.76-.318.447-.477 1.012-.477 1.694v4.502h-1.906l.018-5.878c0-.989-.025-1.89-.072-2.701h1.661l.07 1.642h.053c.201-.565.519-1.019.953-1.36.425-.306.884-.46 1.379-.46.176 0 .335.013.477.036v1.818zM98.385 14.437c0 .342-.022.63-.07.865h-5.721c.022.847.299 1.496.83 1.943.482.4 1.106.6 1.872.6.847 0 1.62-.135 2.315-.406l.299 1.323c-.813.354-1.772.53-2.878.53-1.331 0-2.376-.391-3.137-1.174-.758-.782-1.138-1.833-1.138-3.15 0-1.294.353-2.372 1.06-3.231.741-.918 1.742-1.376 3.002-1.376 1.237 0 2.174.458 2.81 1.376.503.729.756 1.63.756 2.7zm-1.818-.494c.012-.565-.112-1.054-.37-1.466-.33-.53-.838-.795-1.52-.795-.624 0-1.131.259-1.519.777-.317.412-.506.907-.564 1.483h3.973z"/>    </g></svg>