<svg xmlns="http://www.w3.org/2000/svg" width="94" height="18" viewBox="0 0 94 18">    <g fill="#FFF" fill-rule="evenodd">        <path d="M1.468.777l13.863 7.34a1 1 0 0 1 0 1.767L1.468 17.223A1 1 0 0 1 0 16.339V1.661A1 1 0 0 1 1.468.777z"/>        <path fill-rule="nonzero" d="M45.79 6.915c-1.96.009-3.541 1.58-3.535 3.51.006 1.93 1.598 3.49 3.557 3.488 1.96-.003 3.547-1.57 3.547-3.5a3.423 3.423 0 0 0-1.031-2.494 3.53 3.53 0 0 0-2.538-1.004zm0 5.623a2.162 2.162 0 0 1-2.096-1.204 2.1 2.1 0 0 1 .367-2.362 2.18 2.18 0 0 1 2.365-.53 2.125 2.125 0 0 1 1.37 1.972 2.008 2.008 0 0 1-.548 1.478 2.07 2.07 0 0 1-1.458.646zM38.01 6.915c-1.961.004-3.547 1.573-3.544 3.504.003 1.931 1.594 3.495 3.555 3.494 1.96-.002 3.55-1.568 3.55-3.5a3.423 3.423 0 0 0-1.032-2.494A3.53 3.53 0 0 0 38 6.915h.009zm0 5.623a2.162 2.162 0 0 1-2.102-1.197 2.1 2.1 0 0 1 .361-2.365 2.18 2.18 0 0 1 2.366-.535c.826.317 1.37 1.1 1.372 1.973a2.008 2.008 0 0 1-.548 1.478 2.07 2.07 0 0 1-1.458.646h.009zm-9.27-4.545v1.482h3.611a3.082 3.082 0 0 1-.836 1.869 3.724 3.724 0 0 1-2.783 1.087c-2.215 0-4.012-1.77-4.012-3.952 0-2.183 1.797-3.952 4.012-3.952 1.018-.016 2.001.366 2.733 1.062l1.062-1.045a5.298 5.298 0 0 0-3.786-1.54 5.545 5.545 0 0 0-4.964 2.656 5.372 5.372 0 0 0 0 5.564 5.545 5.545 0 0 0 4.964 2.656 5.055 5.055 0 0 0 3.853-1.523 4.897 4.897 0 0 0 1.304-3.475 4.762 4.762 0 0 0-.084-.93l-5.073.041zM66.61 9.146a3.338 3.338 0 0 0-3.042-2.231 3.368 3.368 0 0 0-2.441 1.036 3.264 3.264 0 0 0-.902 2.463c-.02.93.343 1.827 1.009 2.487a3.504 3.504 0 0 0 2.518 1.012 3.55 3.55 0 0 0 2.959-1.548l-1.212-.823a2.038 2.038 0 0 1-1.747.971 1.808 1.808 0 0 1-1.722-1.062l4.756-1.935-.176-.37zm-4.847 1.169a1.9 1.9 0 0 1 .492-1.405 1.96 1.96 0 0 1 1.363-.637 1.383 1.383 0 0 1 1.32.741l-3.175 1.3zM57.9 13.707h1.563V3.416h-1.563v10.29zm-2.557-6.01h-.059a2.525 2.525 0 0 0-1.872-.823c-1.897.09-3.388 1.632-3.388 3.503 0 1.87 1.49 3.412 3.388 3.503a2.44 2.44 0 0 0 1.872-.824h.05v.503c0 1.342-.727 2.058-1.897 2.058a1.963 1.963 0 0 1-1.789-1.243l-1.362.56A3.386 3.386 0 0 0 53.437 17c1.831 0 3.344-1.062 3.344-3.647V7.12h-1.437v.576zm-1.79 4.84c-1.117-.096-1.974-1.018-1.974-2.123 0-1.105.857-2.027 1.975-2.124.54.027 1.046.268 1.403.668s.535.925.494 1.456a1.94 1.94 0 0 1-.491 1.463c-.36.402-.871.64-1.414.66h.008zm20.378-9.121h-3.736v10.29h1.563V9.805h2.181a3.266 3.266 0 0 0 3.01-1.527 3.162 3.162 0 0 0 0-3.334 3.266 3.266 0 0 0-3.01-1.527h-.008zm0 4.94h-2.181V4.847h2.215c.99 0 1.792.79 1.792 1.766s-.802 1.766-1.792 1.766l-.034-.025zm9.637-1.482a2.933 2.933 0 0 0-2.783 1.572l1.387.568c.28-.507.837-.804 1.421-.757.4-.046.804.068 1.118.317.314.25.514.613.554 1.008v.107a3.494 3.494 0 0 0-1.63-.395c-1.496 0-3.009.823-3.009 2.313.03.642.322 1.245.81 1.672.488.426 1.13.64 1.781.592a2.209 2.209 0 0 0 2.006-.987h.05v.823h1.505v-3.96c0-1.803-1.388-2.849-3.168-2.849l-.042-.024zm-.192 5.639c-.51 0-1.22-.255-1.22-.873 0-.823.885-1.095 1.671-1.095.497-.012.987.108 1.421.346a1.878 1.878 0 0 1-1.83 1.647l-.042-.025zm8.885-5.392l-1.79 4.462h-.05L88.568 7.12h-1.671l2.783 6.24-1.588 3.466h1.63L94 7.121h-1.738zm-14.05 6.586h1.562V3.416h-1.563v10.29z"/>    </g></svg>